# xmcd
#
# Track frame offsets:
#	150
#	14964
#	27870
#	44044
#	59534
#	74997
#	87172
#	100781
#	112180
#	127437
#	141848
#
# Disc length: 2108 seconds
# Revision: 1
# Processed by: cddbd v1.5.2PL0 Copyright (c) Steve Scherf et al.
# Submitted via: dBpowerAMP V12.0
#
DISCID=b6083a0b
DTITLE=Rock Ridge Bluegrass Band - Drifter's Prayer
DYEAR=2011
DGENRE=Bluegrass
TTITLE0=Blue Eyed Boston Boy
TTITLE1=Quiet My Love
TTITLE2=Tom Dooley
TTITLE3=From Now on
TTITLE4=Won't You Come and Sing for Me
TTITLE5=Hills A'Callin' Me
TTITLE6=Cold Blue Heart
TTITLE7=Happy I'll Be
TTITLE8=Would You Love Me
TTITLE9=Carolyn the Teenage Queen
TTITLE10=Drifter's Prayer
EXTD=
EXTT0=
EXTT1=
EXTT2=
EXTT3=
EXTT4=
EXTT5=
EXTT6=
EXTT7=
EXTT8=
EXTT9=
EXTT10=
PLAYORDER=
